<svg xmlns="http://www.w3.org/2000/svg" viewBox="0 0 64 64">
  <defs>
    <linearGradient id="bg" x1="10" y1="8" x2="54" y2="58" gradientUnits="userSpaceOnUse">
      <stop offset="0" stop-color="#0f766e" />
      <stop offset="1" stop-color="#1d4ed8" />
    </linearGradient>
  </defs>
  <rect width="64" height="64" rx="14" fill="url(#bg)" />
  <path
    d="M19 34c0-8.8 6.9-16 15.7-16 4.7 0 8.8 2 11.7 5.2l-6 5.4c-1.4-1.7-3.4-2.7-5.8-2.7-4.3 0-7.4 3.5-7.4 8.1s3.1 8.1 7.4 8.1c2.8 0 5.1-1.3 6.5-3.6l6.7 4.6c-2.8 4.4-7.4 7-13.1 7C25.9 50 19 42.8 19 34Z"
    fill="#f8fafc"
  />
  <path d="M13 20.5h13.5" stroke="#99f6e4" stroke-width="5" stroke-linecap="round" />
  <path d="M13 32h9.5" stroke="#bfdbfe" stroke-width="5" stroke-linecap="round" />
  <path d="M13 43.5h13.5" stroke="#99f6e4" stroke-width="5" stroke-linecap="round" />
  <path d="M45 15l1.8 4.2L51 21l-4.2 1.8L45 27l-1.8-4.2L39 21l4.2-1.8L45 15Z" fill="#facc15" />
  <path d="M50 31l1.1 2.4 2.4 1.1-2.4 1.1L50 38l-1.1-2.4-2.4-1.1 2.4-1.1L50 31Z" fill="#e0f2fe" />
</svg>
